<svg width="80" height="86" viewBox="0 0 80 86" fill="none" xmlns="http://www.w3.org/2000/svg">
<path d="M30.8779 2.45636C36.5226 -0.818788 43.4774 -0.818788 49.1221 2.45636L70.3779 14.789C76.0227 18.0642 79.5 24.117 79.5 30.6673V55.3327C79.5 61.883 76.0227 67.9358 70.3779 71.211L49.1221 83.5436C43.4774 86.8188 36.5226 86.8188 30.8779 83.5436L9.62212 71.211C3.97734 67.9358 0.5 61.883 0.5 55.3327V30.6673C0.5 24.117 3.97734 18.0642 9.62212 14.789L30.8779 2.45636Z" fill="#16C995" fill-opacity="0.2"/>
<g clip-path="url(#clip0)">
<path opacity="0.3" d="M37.6667 61.6673V54.6673C37.6667 53.3787 38.7114 52.334 40.0001 52.334C41.2887 52.334 42.3334 53.3787 42.3334 54.6673V61.6673H48.1667C48.8111 61.6673 49.3334 62.1896 49.3334 62.834C49.3334 63.4783 48.8111 64.0006 48.1667 64.0006H31.8334C31.1891 64.0006 30.6667 63.4783 30.6667 62.834C30.6667 62.1896 31.1891 61.6673 31.8334 61.6673H37.6667Z" fill="#16C995"/>
<path opacity="0.3" d="M19.3 27H60.7C61.9703 27 63 28.0074 63 29.25V51.75C63 52.9926 61.9703 54 60.7 54H19.3C18.0297 54 17 52.9926 17 51.75V29.25C17 28.0074 18.0297 27 19.3 27ZM22.75 33.75C22.1149 33.75 21.6 34.2537 21.6 34.875C21.6 35.4963 22.1149 36 22.75 36H43.45C44.0851 36 44.6 35.4963 44.6 34.875C44.6 34.2537 44.0851 33.75 43.45 33.75H22.75ZM22.75 38.25C22.1149 38.25 21.6 38.7537 21.6 39.375C21.6 39.9963 22.1149 40.5 22.75 40.5H29.65C30.2851 40.5 30.8 39.9963 30.8 39.375C30.8 38.7537 30.2851 38.25 29.65 38.25H22.75Z" fill="#16C995"/>
<rect x="18" y="28" width="44" height="25" rx="1" stroke="#16C995" stroke-width="2"/>
<path d="M55 42.5C54.3096 42.5 53.75 43.0596 53.75 43.75V60.25C53.75 60.9404 54.3096 61.5 55 61.5H63C63.6904 61.5 64.25 60.9404 64.25 60.25V43.75C64.25 43.0596 63.6904 42.5 63 42.5H55Z" fill="#98E7D1"/>
<path d="M55 42.5C54.3096 42.5 53.75 43.0596 53.75 43.75V60.25C53.75 60.9404 54.3096 61.5 55 61.5H63C63.6904 61.5 64.25 60.9404 64.25 60.25V43.75C64.25 43.0596 63.6904 42.5 63 42.5H55ZM55 41H63C64.5188 41 65.75 42.2312 65.75 43.75V60.25C65.75 61.7688 64.5188 63 63 63H55C53.4812 63 52.25 61.7688 52.25 60.25V43.75C52.25 42.2312 53.4812 41 55 41ZM56.5 41.75H61.5C61.7761 41.75 62 41.9739 62 42.25V43.25C62 43.5261 61.7761 43.75 61.5 43.75H56.5C56.2239 43.75 56 43.5261 56 43.25V42.25C56 41.9739 56.2239 41.75 56.5 41.75Z" fill="#16C995"/>
</g>
<defs>
<clipPath id="clip0">
<rect width="56" height="56" fill="white" transform="translate(12 15)"/>
</clipPath>
</defs>
</svg>
