<svg width="770" height="389" viewBox="0 0 770 389" fill="none" xmlns="http://www.w3.org/2000/svg">
<g clip-path="url(#clip0)">
<path d="M722.836 157.383H278.7C276.815 157.383 275.006 158.131 273.672 159.464C272.339 160.797 271.59 162.604 271.59 164.489C271.59 166.373 272.339 168.181 273.672 169.513C275.006 170.846 276.815 171.595 278.7 171.595H291.281V341.592C291.281 343.476 292.03 345.284 293.363 346.616C294.697 347.949 296.505 348.698 298.391 348.698C300.277 348.698 302.086 347.949 303.419 346.616C304.753 345.284 305.502 343.476 305.502 341.592L305.61 171.595H662.074L694.941 341.592C694.941 343.476 695.69 345.284 697.024 346.616C698.357 347.949 700.166 348.698 702.052 348.698C703.937 348.698 705.746 347.949 707.079 346.616C708.413 345.284 709.162 343.476 709.162 341.592L711.231 171.595H722.836C724.722 171.595 726.531 170.846 727.864 169.513C729.198 168.181 729.947 166.373 729.947 164.489C729.947 162.604 729.198 160.797 727.864 159.464C726.531 158.131 724.722 157.383 722.836 157.383V157.383Z" fill="#CCCCCC"/>
<path d="M355.685 125.72V155.812H280.245C278.268 155.881 276.297 155.56 274.444 154.867C272.591 154.174 270.893 153.124 269.446 151.775C267.999 150.427 266.833 148.807 266.013 147.007C265.192 145.208 264.735 143.265 264.666 141.289C264.597 139.314 264.919 137.344 265.612 135.492C266.305 133.64 267.356 131.943 268.705 130.497C270.055 129.051 271.676 127.885 273.476 127.066C275.277 126.246 277.221 125.789 279.198 125.72C279.547 125.708 279.896 125.708 280.245 125.72L355.685 125.72Z" fill="#F2F2F2"/>
<path d="M357.538 155.58C357.538 155.887 357.416 156.181 357.199 156.398C356.982 156.616 356.688 156.737 356.38 156.738H278.902C274.696 156.735 270.663 155.063 267.69 152.09C264.717 149.116 263.047 145.085 263.047 140.882C263.047 136.678 264.717 132.647 267.69 129.673C270.663 126.7 274.696 125.028 278.902 125.025H356.38C356.533 125.025 356.684 125.055 356.825 125.113C356.965 125.171 357.093 125.256 357.201 125.363C357.309 125.471 357.395 125.599 357.453 125.739C357.511 125.88 357.542 126.031 357.542 126.183C357.542 126.335 357.511 126.486 357.453 126.626C357.395 126.767 357.309 126.895 357.201 127.002C357.093 127.11 356.965 127.195 356.825 127.253C356.684 127.311 356.533 127.341 356.38 127.34H278.902C275.312 127.346 271.87 128.775 269.334 131.314C266.797 133.852 265.372 137.294 265.372 140.882C265.372 144.469 266.797 147.911 269.334 150.449C271.87 152.988 275.312 154.417 278.902 154.423H356.38C356.688 154.423 356.982 154.545 357.199 154.762C357.416 154.979 357.538 155.273 357.538 155.58V155.58Z" fill="#766DF4"/>
<path d="M355.685 132.664H274.617C274.555 132.664 274.496 132.64 274.453 132.597C274.409 132.555 274.384 132.496 274.384 132.435C274.383 132.374 274.407 132.315 274.45 132.271C274.493 132.227 274.551 132.202 274.612 132.201H355.685C355.746 132.202 355.805 132.226 355.848 132.27C355.891 132.313 355.915 132.372 355.915 132.433C355.915 132.494 355.891 132.552 355.848 132.596C355.805 132.639 355.746 132.664 355.685 132.664Z" fill="#CCCCCC"/>
<path d="M355.685 138.221H274.617C274.555 138.221 274.496 138.197 274.453 138.154C274.409 138.111 274.384 138.053 274.384 137.991C274.383 137.93 274.407 137.871 274.45 137.827C274.493 137.784 274.551 137.759 274.612 137.758H355.685C355.746 137.758 355.805 137.783 355.848 137.826C355.891 137.87 355.915 137.928 355.915 137.989C355.915 138.05 355.891 138.109 355.848 138.152C355.805 138.195 355.746 138.22 355.685 138.221Z" fill="#CCCCCC"/>
<path d="M355.685 143.775H274.617C274.555 143.776 274.496 143.752 274.453 143.709C274.409 143.666 274.384 143.607 274.384 143.546C274.383 143.485 274.407 143.426 274.45 143.382C274.493 143.338 274.551 143.313 274.612 143.312H355.685C355.746 143.313 355.805 143.338 355.848 143.381C355.891 143.424 355.915 143.483 355.915 143.544C355.915 143.605 355.891 143.663 355.848 143.707C355.805 143.75 355.746 143.775 355.685 143.775Z" fill="#CCCCCC"/>
<path d="M355.685 149.33H274.617C274.555 149.33 274.496 149.307 274.453 149.264C274.409 149.221 274.384 149.162 274.384 149.101C274.383 149.04 274.407 148.981 274.45 148.937C274.493 148.893 274.551 148.868 274.612 148.867H355.685C355.746 148.868 355.805 148.892 355.848 148.936C355.891 148.979 355.915 149.038 355.915 149.099C355.915 149.16 355.891 149.218 355.848 149.262C355.805 149.305 355.746 149.33 355.685 149.33Z" fill="#CCCCCC"/>
<path d="M341.464 94.0169V124.109H266.025C262.032 124.248 258.147 122.796 255.225 120.072C252.304 117.349 250.584 113.577 250.445 109.586C250.306 105.596 251.759 101.714 254.484 98.7939C257.21 95.8741 260.984 94.1557 264.977 94.0169C265.326 94.0048 265.675 94.0048 266.025 94.0169H341.464Z" fill="#F2F2F2"/>
<path d="M343.317 123.877C343.317 124.184 343.195 124.478 342.978 124.695C342.761 124.912 342.466 125.034 342.159 125.034H264.681C260.473 125.034 256.437 123.364 253.462 120.39C250.486 117.417 248.814 113.384 248.814 109.178C248.814 104.973 250.486 100.94 253.462 97.9664C256.437 94.9928 260.473 93.3223 264.681 93.3223H342.159C342.311 93.3223 342.462 93.3522 342.602 93.4104C342.743 93.4685 342.871 93.5538 342.978 93.6612C343.086 93.7687 343.171 93.8963 343.229 94.0367C343.287 94.1772 343.317 94.3277 343.317 94.4796C343.317 94.6316 343.287 94.7821 343.229 94.9225C343.171 95.063 343.086 95.1906 342.978 95.298C342.871 95.4055 342.743 95.4907 342.602 95.5489C342.462 95.6071 342.311 95.637 342.159 95.637H264.681C261.087 95.637 257.641 97.0637 255.099 99.6032C252.558 102.143 251.131 105.587 251.131 109.178C251.131 112.77 252.558 116.214 255.099 118.754C257.641 121.293 261.087 122.72 264.681 122.72H342.159C342.466 122.72 342.761 122.842 342.978 123.059C343.195 123.276 343.317 123.57 343.317 123.877Z" fill="#3F3D56"/>
<path d="M341.464 100.961H260.396C260.334 100.961 260.276 100.937 260.232 100.894C260.188 100.851 260.163 100.793 260.163 100.732C260.162 100.67 260.186 100.611 260.229 100.568C260.272 100.524 260.33 100.499 260.391 100.498H341.464C341.525 100.499 341.584 100.523 341.627 100.567C341.67 100.61 341.694 100.669 341.694 100.729C341.694 100.79 341.67 100.849 341.627 100.892C341.584 100.936 341.525 100.96 341.464 100.961V100.961Z" fill="#CCCCCC"/>
<path d="M341.464 106.516H260.396C260.334 106.516 260.276 106.492 260.232 106.449C260.188 106.406 260.163 106.348 260.163 106.286C260.162 106.225 260.186 106.166 260.229 106.122C260.272 106.079 260.33 106.054 260.391 106.053H341.464C341.525 106.053 341.584 106.078 341.627 106.121C341.67 106.165 341.694 106.223 341.694 106.284C341.694 106.345 341.67 106.404 341.627 106.447C341.584 106.49 341.525 106.515 341.464 106.516Z" fill="#CCCCCC"/>
<path d="M341.464 112.072H260.396C260.334 112.073 260.276 112.049 260.232 112.006C260.188 111.963 260.163 111.904 260.163 111.843C260.162 111.782 260.186 111.723 260.229 111.679C260.272 111.635 260.33 111.61 260.391 111.609H341.464C341.525 111.61 341.584 111.635 341.627 111.678C341.67 111.721 341.694 111.78 341.694 111.841C341.694 111.902 341.67 111.96 341.627 112.004C341.584 112.047 341.525 112.072 341.464 112.072Z" fill="#CCCCCC"/>
<path d="M341.464 117.627H260.396C260.334 117.627 260.276 117.603 260.232 117.56C260.188 117.517 260.163 117.459 260.163 117.398C260.162 117.336 260.186 117.277 260.229 117.234C260.272 117.19 260.33 117.165 260.391 117.164H341.464C341.525 117.165 341.584 117.189 341.627 117.233C341.67 117.276 341.694 117.335 341.694 117.396C341.694 117.457 341.67 117.515 341.627 117.558C341.584 117.602 341.525 117.626 341.464 117.627V117.627Z" fill="#CCCCCC"/>
<path d="M429.224 263.866V237.629C429.224 236.469 428.763 235.357 427.942 234.537C427.122 233.717 426.009 233.256 424.848 233.256H325.301C324.14 233.256 323.027 233.717 322.206 234.537C321.386 235.357 320.925 236.469 320.925 237.629V263.866H429.224Z" fill="#CCCCCC"/>
<path d="M429.224 273.705H320.925V307.595H429.224V273.705Z" fill="#CCCCCC"/>
<path d="M320.925 317.434V343.671C320.925 344.831 321.386 345.943 322.206 346.763C323.027 347.583 324.14 348.044 325.301 348.044H424.848C426.009 348.044 427.122 347.583 427.942 346.763C428.763 345.943 429.224 344.831 429.224 343.671V317.434H320.925Z" fill="#CCCCCC"/>
<path d="M374.527 252.934C376.34 252.934 377.809 251.466 377.809 249.655C377.809 247.843 376.34 246.375 374.527 246.375C372.715 246.375 371.246 247.843 371.246 249.655C371.246 251.466 372.715 252.934 374.527 252.934Z" fill="white"/>
<path d="M374.527 296.663C376.34 296.663 377.809 295.194 377.809 293.383C377.809 291.572 376.34 290.104 374.527 290.104C372.715 290.104 371.246 291.572 371.246 293.383C371.246 295.194 372.715 296.663 374.527 296.663Z" fill="white"/>
<path d="M374.703 339.466C376.516 339.466 377.985 337.997 377.985 336.186C377.985 334.375 376.516 332.906 374.703 332.906C372.891 332.906 371.421 334.375 371.421 336.186C371.421 337.997 372.891 339.466 374.703 339.466Z" fill="white"/>
<path d="M416.946 203.339V233.431H341.506C337.515 233.567 333.633 232.114 330.713 229.391C327.794 226.667 326.076 222.897 325.937 218.909C325.798 214.92 327.249 211.04 329.972 208.12C332.695 205.201 336.466 203.481 340.457 203.339C340.807 203.327 341.156 203.327 341.506 203.339H416.946Z" fill="#F2F2F2"/>
<path d="M418.799 233.199C418.798 233.506 418.676 233.801 418.459 234.018C418.242 234.235 417.948 234.357 417.64 234.357H340.162C335.955 234.358 331.92 232.689 328.944 229.717C325.968 226.746 324.294 222.714 324.292 218.51C324.289 214.306 325.958 210.273 328.93 207.297C331.903 204.322 335.936 202.649 340.143 202.645H417.64C417.793 202.644 417.944 202.674 418.085 202.732C418.225 202.79 418.353 202.875 418.461 202.982C418.569 203.09 418.655 203.218 418.713 203.358C418.772 203.499 418.802 203.65 418.802 203.802C418.802 203.954 418.772 204.105 418.713 204.246C418.655 204.386 418.569 204.514 418.461 204.621C418.353 204.729 418.225 204.814 418.085 204.872C417.944 204.93 417.793 204.96 417.64 204.959H340.162C336.571 204.964 333.129 206.393 330.592 208.932C328.055 211.471 326.63 214.912 326.63 218.501C326.63 222.089 328.055 225.531 330.592 228.07C333.129 230.609 336.571 232.037 340.162 232.042H417.64C417.948 232.042 418.242 232.164 418.459 232.381C418.676 232.598 418.798 232.892 418.799 233.199V233.199Z" fill="#3F3D56"/>
<path d="M416.946 210.285H335.877C335.816 210.286 335.757 210.262 335.713 210.219C335.669 210.176 335.645 210.117 335.644 210.056C335.643 209.995 335.667 209.936 335.71 209.892C335.753 209.848 335.811 209.823 335.873 209.822H416.946C417.007 209.823 417.065 209.848 417.108 209.891C417.151 209.934 417.175 209.993 417.175 210.054C417.175 210.115 417.151 210.173 417.108 210.217C417.065 210.26 417.007 210.285 416.946 210.285H416.946Z" fill="#CCCCCC"/>
<path d="M416.946 215.84H335.877C335.816 215.84 335.757 215.816 335.713 215.773C335.669 215.73 335.645 215.672 335.644 215.611C335.643 215.549 335.667 215.49 335.71 215.447C335.753 215.403 335.811 215.378 335.873 215.377H416.946C417.007 215.378 417.065 215.402 417.108 215.446C417.151 215.489 417.175 215.547 417.175 215.608C417.175 215.669 417.151 215.728 417.108 215.771C417.065 215.815 417.007 215.839 416.946 215.84H416.946Z" fill="#CCCCCC"/>
<path d="M416.946 221.395H335.877C335.816 221.395 335.757 221.371 335.713 221.328C335.669 221.285 335.645 221.226 335.644 221.165C335.643 221.104 335.667 221.045 335.71 221.001C335.753 220.957 335.811 220.932 335.873 220.932H416.946C417.007 220.932 417.065 220.957 417.108 221C417.151 221.044 417.175 221.102 417.175 221.163C417.175 221.224 417.151 221.283 417.108 221.326C417.065 221.369 417.007 221.394 416.946 221.395H416.946Z" fill="#CCCCCC"/>
<path d="M416.946 226.951H335.877C335.816 226.952 335.757 226.928 335.713 226.885C335.669 226.842 335.645 226.783 335.644 226.722C335.643 226.661 335.667 226.602 335.71 226.558C335.753 226.514 335.811 226.489 335.873 226.488H416.946C417.007 226.489 417.065 226.514 417.108 226.557C417.151 226.6 417.175 226.659 417.175 226.72C417.175 226.781 417.151 226.839 417.108 226.883C417.065 226.926 417.007 226.951 416.946 226.951H416.946Z" fill="#CCCCCC"/>
<path d="M328.346 83.9796H293.974C293.648 83.9793 293.326 84.0541 293.034 84.1982L284.359 88.5383C284.073 88.6596 283.83 88.8621 283.659 89.1206C283.488 89.3792 283.396 89.6823 283.396 89.9923C283.396 90.3023 283.488 90.6054 283.659 90.864C283.83 91.1225 284.073 91.325 284.359 91.4463L293.034 95.7863C293.326 95.9305 293.648 96.0053 293.974 96.005H328.346C328.819 96.0324 329.285 95.8722 329.641 95.5591C329.997 95.2461 330.216 94.8053 330.249 94.3324V85.6522C330.216 85.1792 329.997 84.7385 329.641 84.4254C329.285 84.1124 328.819 83.9522 328.346 83.9796V83.9796Z" fill="#3F3D56"/>
<path d="M330.249 85.6522V94.3324C330.216 94.8054 329.997 95.2461 329.641 95.5592C329.284 95.8723 328.819 96.0325 328.345 96.0051H321.498V83.9796H328.345C328.819 83.9522 329.284 84.1124 329.641 84.4255C329.997 84.7385 330.216 85.1793 330.249 85.6522V85.6522Z" fill="#766DF4"/>
<path d="M122.279 254.064C126.705 255.618 131.457 256.008 136.077 255.194C140.697 254.381 145.03 252.392 148.658 249.42C157.897 241.67 160.794 228.903 163.151 217.081C165.474 205.425 167.798 193.769 170.122 182.113L155.527 192.157C145.03 199.379 134.298 206.833 127.03 217.295C119.763 227.757 116.59 242.038 122.43 253.358" fill="#16C995"/>
<path d="M123.527 296.398C122.05 285.644 120.531 274.753 121.567 263.884C122.487 254.231 125.434 244.803 131.433 237.073C134.618 232.978 138.492 229.469 142.883 226.704C144.028 225.982 145.082 227.795 143.942 228.514C136.345 233.313 130.468 240.399 127.16 248.75C123.506 258.038 122.919 268.162 123.549 278.028C123.93 283.994 124.737 289.921 125.55 295.84C125.614 296.108 125.574 296.39 125.438 296.63C125.302 296.869 125.08 297.048 124.817 297.13C124.549 297.202 124.263 297.166 124.022 297.029C123.78 296.892 123.602 296.665 123.527 296.398L123.527 296.398Z" fill="#07E0A1"/>
<path d="M137.756 277.37C139.654 280.253 142.263 282.599 145.332 284.182C148.4 285.765 151.825 286.531 155.276 286.407C164.146 285.987 171.54 279.8 178.196 273.927L197.884 256.556L184.854 255.933C175.483 255.485 165.871 255.067 156.946 257.954C148.021 260.842 139.79 267.792 138.158 277.024" fill="#16C995"/>
<path d="M119.352 302.581C126.462 290.008 134.71 276.034 149.446 271.568C153.544 270.33 157.84 269.887 162.104 270.262C163.448 270.378 163.113 272.448 161.771 272.332C154.623 271.739 147.49 273.625 141.571 277.673C135.875 281.548 131.44 286.934 127.687 292.646C125.388 296.145 123.328 299.792 121.268 303.435C120.61 304.599 118.686 303.759 119.352 302.581L119.352 302.581Z" fill="#07E0A1"/>
<path d="M107.959 315.814C108.199 313.04 109.196 310.385 110.841 308.138C112.486 305.89 114.717 304.137 117.29 303.07V295.801H129.489V303.299C131.936 304.419 134.041 306.168 135.591 308.366C137.141 310.565 138.08 313.135 138.312 315.814L141.18 349.138H105.091L107.959 315.814Z" fill="#766DF4"/>
<path d="M522.831 156.7L519.202 155.173L516.713 136.992H483.561L480.862 155.099L477.615 156.721C477.46 156.799 477.335 156.926 477.262 157.084C477.188 157.241 477.17 157.418 477.21 157.587C477.25 157.756 477.346 157.907 477.482 158.014C477.618 158.122 477.787 158.181 477.96 158.181H522.532C522.71 158.181 522.883 158.119 523.021 158.006C523.158 157.894 523.253 157.737 523.288 157.563C523.323 157.388 523.297 157.207 523.214 157.05C523.131 156.893 522.996 156.769 522.831 156.7V156.7Z" fill="#E6E6E6"/>
<path d="M581.745 139.412H418.892C418.037 139.41 417.219 139.07 416.615 138.465C416.012 137.861 415.673 137.042 415.673 136.188V113.238H584.965V136.188C584.965 137.042 584.626 137.861 584.022 138.465C583.419 139.07 582.6 139.41 581.745 139.412V139.412Z" fill="#CCCCCC"/>
<path d="M585.135 124.084H415.524V25.8869C415.525 24.8564 415.936 23.8684 416.665 23.1397C417.394 22.411 418.383 22.0012 419.414 22H581.246C582.277 22.0012 583.265 22.411 583.995 23.1397C584.724 23.8684 585.134 24.8564 585.135 25.8869L585.135 124.084Z" fill="#3F3D56"/>
<path d="M575.005 116.957H425.654C424.859 116.956 424.097 116.64 423.535 116.078C422.973 115.516 422.657 114.755 422.656 113.96V32.1237C422.657 31.3292 422.973 30.5675 423.535 30.0057C424.097 29.4439 424.859 29.1279 425.654 29.127H575.005C575.8 29.1279 576.562 29.4439 577.124 30.0057C577.686 30.5675 578.002 31.3292 578.003 32.1237V113.96C578.002 114.755 577.686 115.516 577.124 116.078C576.562 116.64 575.8 116.956 575.005 116.957V116.957Z" fill="white"/>
<path d="M535.668 145.833C536.632 144.943 537.78 144.275 539.031 143.876C540.281 143.477 541.604 143.357 542.906 143.524C544.208 143.692 545.457 144.142 546.566 144.845C547.675 145.547 548.616 146.483 549.323 147.588L569.525 143.999L574.702 155.735L546.102 160.404C544.166 161.468 541.906 161.786 539.751 161.297C537.596 160.808 535.695 159.546 534.409 157.75C533.123 155.954 532.541 153.749 532.773 151.552C533.005 149.356 534.035 147.321 535.668 145.833V145.833Z" fill="#FFB6B6"/>
<path d="M554.371 160.819L575.432 160.557L578.098 160.521L620.946 159.981C620.946 159.981 632.582 148.888 642.714 137.466L641.293 127.201C639.908 117.127 634.908 107.899 627.222 101.234C612.711 110.924 604.296 130.105 604.296 130.105L577.728 136.455L575.07 137.09L558.563 141.033L554.371 160.819Z" fill="#766DF4"/>
<path d="M662.182 223.912H622.87C622.87 225.595 579.897 226.962 579.897 226.962C578.949 227.675 578.085 228.493 577.322 229.401C575.027 232.136 573.774 235.592 573.781 239.16V241.599C573.783 245.643 575.391 249.52 578.252 252.38C581.113 255.239 584.993 256.846 589.039 256.847H662.182C666.227 256.844 670.106 255.236 672.967 252.377C675.827 249.519 677.436 245.642 677.44 241.599V239.16C677.434 235.118 675.825 231.243 672.964 228.384C670.104 225.526 666.227 223.918 662.182 223.912V223.912Z" fill="#E4E4E4"/>
<path d="M633.595 256.242H617.727V347.773H633.595V256.242Z" fill="#E4E4E4"/>
<path d="M572.564 347.217C572.564 348.93 596.61 347.879 626.271 347.879C655.932 347.879 679.978 348.93 679.978 347.217C679.978 345.503 655.932 331.916 626.271 331.916C596.61 331.916 572.564 345.503 572.564 347.217Z" fill="#E4E4E4"/>
<path d="M561.905 336.757L550.096 336.756L544.478 291.234L561.907 291.235L561.905 336.757Z" fill="#FFB6B6"/>
<path d="M564.917 348.197L526.838 348.195V347.714C526.838 343.786 528.4 340.018 531.179 337.241C533.959 334.463 537.728 332.903 541.659 332.902H541.66L564.917 332.903L564.917 348.197Z" fill="#4A4B65"/>
<path d="M527.001 336.757L515.192 336.756L509.574 291.234L527.003 291.235L527.001 336.757Z" fill="#FFB6B6"/>
<path d="M530.013 348.197L491.934 348.195V347.714C491.934 343.786 493.496 340.018 496.275 337.241C499.055 334.463 502.825 332.903 506.755 332.902H506.756L530.014 332.903L530.013 348.197Z" fill="#4A4B65"/>
<path d="M632.788 74.685C644.128 74.685 653.321 65.4978 653.321 54.1648C653.321 42.8318 644.128 33.6445 632.788 33.6445C621.448 33.6445 612.254 42.8318 612.254 54.1648C612.254 65.4978 621.448 74.685 632.788 74.685Z" fill="#FFB6B6"/>
<path d="M666.021 194.76C666.021 194.76 672.91 231.168 646.697 235.804C620.483 240.44 582.643 243.699 582.643 243.699L565.65 322.93L542.82 320.893C542.82 320.893 545.857 225.516 553.323 218.055C560.79 210.593 607.982 188.25 607.982 188.25L666.021 194.76Z" fill="#4A4B65"/>
<path d="M614.824 179.502L603.359 190.996C603.359 190.996 520.578 204.321 517.384 223.429C512.563 252.277 506.868 315.008 506.868 315.008L531.757 313.143L541.517 241.834L581.339 232.781L626.646 208.106L614.824 179.502Z" fill="#4A4B65"/>
<path d="M652.547 41.9146C650.52 38.0928 647.945 30.4758 643.853 29.0632C641.581 28.3103 639.233 27.8104 636.851 27.5725L629.898 30.2454L633.682 27.3037C632.945 27.2599 632.209 27.224 631.473 27.1961L626.781 28.9995L629.181 27.1337C624.807 27.0889 620.292 27.5434 616.903 30.2045C614.013 32.4731 611.151 41.0671 610.688 44.7098C610.193 48.1947 610.366 51.7418 611.198 55.162L612.386 56.2911C612.802 55.3387 613.114 54.3445 613.319 53.3256C613.744 51.4219 614.563 49.6278 615.721 48.0575C616.879 46.4872 618.352 45.1753 620.045 44.2054L620.11 44.1689C622.103 43.0481 624.521 43.0997 626.807 43.1819L637.66 43.5722C640.272 43.6662 643.084 43.8313 645.119 45.4683C646.413 46.6758 647.431 48.1487 648.102 49.7859C649.113 51.8263 651.09 59.5224 651.09 59.5224C651.09 59.5224 652.209 58.0697 652.745 59.1509C653.604 56.3298 654.127 53.417 654.302 50.4732C654.473 47.5163 653.868 44.566 652.547 41.9146V41.9146Z" fill="#4A4B65"/>
<path d="M724.364 63.1759C723.054 63.2621 721.779 63.6342 720.629 64.2661C719.478 64.898 718.48 65.7743 717.706 66.8332C716.931 67.8921 716.398 69.1079 716.144 70.395C715.89 71.6821 715.922 73.0091 716.237 74.2825L699.725 86.4547L704.68 98.2867L727.756 80.7699C729.862 80.0993 731.648 78.6801 732.777 76.7813C733.905 74.8824 734.298 72.6357 733.88 70.467C733.461 68.2984 732.262 66.3583 730.508 65.0145C728.754 63.6707 726.568 63.0165 724.364 63.1759V63.1759Z" fill="#FFB6B6"/>
<path d="M721.706 88.0241L680.312 133.967C680.312 133.967 660.517 127.634 645.208 120.768L638.33 99.6579C636.733 94.7606 636.052 89.6113 636.32 84.4675C657.542 78.8237 682.228 99.8234 682.228 99.8234L713.213 75.5684L721.706 88.0241Z" fill="#766DF4"/>
<path d="M625.118 198.153C617.733 195.604 610.097 192.967 601.86 191.978L601.506 191.935L601.604 191.593C610.131 161.674 608.002 142.535 603.824 113.786C602.935 107.585 604.077 101.263 607.079 95.7634C610.081 90.264 614.782 85.8822 620.48 83.272L620.531 83.2491L644.056 81.7552L644.11 81.752L661.219 86.7807C663.68 87.5095 665.835 89.0246 667.352 91.0939C668.869 93.1632 669.666 95.6726 669.619 98.2375C669.434 107.692 669.827 118.248 670.243 129.424C671.177 154.495 672.142 180.42 666.664 197.241L666.635 197.329L666.562 197.387C661.526 201.486 655.216 203.701 648.721 203.65C641.042 203.65 633.205 200.944 625.118 198.153Z" fill="#766DF4"/>
<path d="M795.906 350.181H41.0939C40.8038 350.181 40.5256 350.065 40.3204 349.86C40.1153 349.655 40 349.377 40 349.087C40 348.797 40.1153 348.519 40.3204 348.314C40.5256 348.109 40.8038 347.994 41.0939 347.994H795.906C796.196 347.994 796.474 348.109 796.68 348.314C796.885 348.519 797 348.797 797 349.087C797 349.377 796.885 349.655 796.68 349.86C796.474 350.065 796.196 350.181 795.906 350.181Z" fill="#CCCCCC"/>
<path d="M513.301 65.2665C512.418 64.3281 512.462 62.8514 513.401 61.9682C514.339 61.085 515.816 61.1297 516.699 62.0681L526.032 71.9848C526.878 72.8833 526.878 74.2847 526.032 75.1832L516.699 85.0999C515.816 86.0383 514.339 86.083 513.401 85.1998C512.462 84.3166 512.418 82.8399 513.301 81.9015L521.129 73.584L513.301 65.2665ZM488.699 65.2665L480.871 73.584L488.699 81.9015C489.582 82.8399 489.538 84.3166 488.599 85.1998C487.661 86.083 486.184 86.0382 485.301 85.0998L475.967 75.1832C475.122 74.2847 475.122 72.8833 475.967 71.9848L485.301 62.0681C486.184 61.1297 487.661 61.085 488.599 61.9682C489.538 62.8514 489.582 64.3281 488.699 65.2665Z" fill="#766DF4"/>
<path opacity="0.3" d="M507.481 57.8269C507.815 56.5821 507.076 55.3027 505.831 54.9691C504.587 54.6356 503.307 55.3743 502.974 56.6191L494.519 88.1726C494.185 89.4174 494.924 90.6968 496.169 91.0304C497.414 91.3639 498.693 90.6252 499.027 89.3805L507.481 57.8269Z" fill="#766DF4"/>
</g>
<defs>
<clipPath id="clip0">
<rect width="770" height="389" fill="white"/>
</clipPath>
</defs>
</svg>
