<svg xmlns="http://www.w3.org/2000/svg" xmlns:xlink="http://www.w3.org/1999/xlink"><symbol id="icon-arrow-down" viewBox="0 0 24 24">
<path opacity="0.5" d="M13 5C13 4.44772 12.5523 4 12 4C11.4477 4 11 4.44772 11 5L11 12C11 12.5523 11.4477 13 12 13C12.5523 13 13 12.5523 13 12L13 5Z" fill="currentColor"/>
<path d="M6.70711 11.2929C6.31658 10.9024 5.68342 10.9024 5.29289 11.2929C4.90237 11.6834 4.90237 12.3166 5.29289 12.7071L11.2929 18.7071C11.6715 19.0857 12.2811 19.0989 12.6757 18.7372L18.6757 13.2372C19.0828 12.864 19.1103 12.2314 18.7372 11.8243C18.364 11.4172 17.7314 11.3897 17.3243 11.7628L12.0301 16.6159L6.70711 11.2929Z" fill="currentColor"/>
</symbol><symbol id="icon-close" viewBox="0 0 24 24">
  <g transform="translate(12.000000, 12.000000) rotate(-45.000000) translate(-12.000000, -12.000000) translate(4.000000, 4.000000)" fill="none">
      <rect fill="currentColor" x="0" y="7" width="16" height="2" rx="1"/>
      <rect fill="currentColor" opacity="0.5" transform="translate(8.000000, 8.000000) rotate(-270.000000) translate(-8.000000, -8.000000) " x="0" y="7" width="16" height="2" rx="1"/>
  </g>
</symbol><symbol id="icon-logo" viewBox="0 0 48 48">
<path d="M34.5436 17.3707C33.7866 16.5664 33.8249 15.3006 34.6293 14.5436C35.4336 13.7866 36.6994 13.8249 37.4564 14.6293L45.4564 23.1293C46.1812 23.8994 46.1812 25.1006 45.4564 25.8707L37.4564 34.3707C36.6994 35.1751 35.4336 35.2134 34.6293 34.4564C33.8249 33.6994 33.7866 32.4336 34.5436 31.6293L41.2535 24.5L34.5436 17.3707ZM13.4564 17.3707L6.7465 24.5L13.4564 31.6293C14.2134 32.4336 14.1751 33.6994 13.3707 34.4564C12.5664 35.2134 11.3006 35.1751 10.5436 34.3707L2.5436 25.8707C1.8188 25.1006 1.8188 23.8994 2.5436 23.1293L10.5436 14.6293C11.3006 13.8249 12.5664 13.7866 13.3707 14.5436C14.1751 15.3006 14.2134 16.5664 13.4564 17.3707Z" fill="currentColor"/>
<path opacity="0.3" d="M29.5555 10.9945C29.8414 9.92754 29.2083 8.83087 28.1413 8.54498C27.0744 8.2591 25.9777 8.89226 25.6918 9.9592L18.4449 37.0051C18.159 38.0721 18.7922 39.1687 19.8591 39.4546C20.926 39.7405 22.0227 39.1073 22.3086 38.0404L29.5555 10.9945Z" fill="currentColor"/>
</symbol><symbol id="icon-moon" viewBox="0 0 24 25">
<path fill-rule="evenodd" clip-rule="evenodd" d="M12.0701 4.5003C11.3895 5.67693 11 7.04298 11 8.5C11 12.8949 14.5439 16.4621 18.9299 16.4997C17.5467 18.8911 14.9613 20.5 12 20.5C7.58172 20.5 4 16.9183 4 12.5C4 8.08172 7.58172 4.5 12 4.5C12.0234 4.5 12.0467 4.5001 12.0701 4.5003Z" fill="currentColor"/>
</symbol><symbol id="icon-sun" viewBox="0 0 24 25">
<path d="M12 16.5C9.79086 16.5 8 14.7091 8 12.5C8 10.2909 9.79086 8.5 12 8.5C14.2091 8.5 16 10.2909 16 12.5C16 14.7091 14.2091 16.5 12 16.5Z" fill="currentColor"/>
<path opacity="0.5" d="M19.5 11H21C21.8284 11 22.5 11.6716 22.5 12.5C22.5 13.3284 21.8284 14 21 14H19.5C18.6716 14 18 13.3284 18 12.5C18 11.6716 18.6716 11 19.5 11ZM16.0607 6.37132L17.1213 5.31066C17.7071 4.72487 18.6569 4.72487 19.2426 5.31066C19.8284 5.89645 19.8284 6.84619 19.2426 7.43198L18.182 8.49264C17.5962 9.07843 16.6464 9.07843 16.0607 8.49264C15.4749 7.90685 15.4749 6.95711 16.0607 6.37132ZM16.0607 18.682C15.4749 18.0962 15.4749 17.1464 16.0607 16.5607C16.6464 15.9749 17.5962 15.9749 18.182 16.5607L19.2426 17.6213C19.8284 18.2071 19.8284 19.1569 19.2426 19.7426C18.6569 20.3284 17.7071 20.3284 17.1213 19.7426L16.0607 18.682ZM3 11H4.5C5.32843 11 6 11.6716 6 12.5C6 13.3284 5.32843 14 4.5 14H3C2.17157 14 1.5 13.3284 1.5 12.5C1.5 11.6716 2.17157 11 3 11ZM12 2C12.8284 2 13.5 2.67157 13.5 3.5V5C13.5 5.82843 12.8284 6.5 12 6.5C11.1716 6.5 10.5 5.82843 10.5 5V3.5C10.5 2.67157 11.1716 2 12 2ZM12 18.5C12.8284 18.5 13.5 19.1716 13.5 20V21.5C13.5 22.3284 12.8284 23 12 23C11.1716 23 10.5 22.3284 10.5 21.5V20C10.5 19.1716 11.1716 18.5 12 18.5ZM4.81066 5.31066C5.39645 4.72487 6.34619 4.72487 6.93198 5.31066L7.99264 6.37132C8.57843 6.95711 8.57843 7.90685 7.99264 8.49264C7.40685 9.07843 6.45711 9.07843 5.87132 8.49264L4.81066 7.43198C4.22487 6.84619 4.22487 5.89645 4.81066 5.31066ZM4.81066 19.7426C4.22487 19.1569 4.22487 18.2071 4.81066 17.6213L5.87132 16.5607C6.45711 15.9749 7.40685 15.9749 7.99264 16.5607C8.57843 17.1464 8.57843 18.0962 7.99264 18.682L6.93198 19.7426C6.34619 20.3284 5.39645 20.3284 4.81066 19.7426Z" fill="currentColor"/>
</symbol></svg>