<svg width="17" height="18" viewBox="0 0 17 18" fill="none" xmlns="http://www.w3.org/2000/svg">
<path d="M8.51897 4.35937C6.0904 4.35937 4.15513 6.44866 4.15513 8.97991C4.15513 11.5513 6.0904 13.6004 8.51897 13.6004C10.9096 13.6004 12.8828 11.5513 12.8828 8.97991C12.8828 6.44866 10.9096 4.35937 8.51897 4.35937ZM8.51897 11.9933C6.96317 11.9933 5.67299 10.6674 5.67299 8.97991C5.67299 7.33259 6.92522 6.0067 8.51897 6.0067C10.0748 6.0067 11.327 7.33259 11.327 8.97991C11.327 10.6674 10.0748 11.9933 8.51897 11.9933ZM14.0592 4.19866C14.0592 3.59598 13.6038 3.11384 13.0346 3.11384C12.4654 3.11384 12.01 3.59598 12.01 4.19866C12.01 4.80134 12.4654 5.28348 13.0346 5.28348C13.6038 5.28348 14.0592 4.80134 14.0592 4.19866ZM16.9431 5.28348C16.8672 3.83705 16.5636 2.55134 15.577 1.5067C14.5904 0.462054 13.3761 0.140625 12.01 0.0602679C10.606 -0.0200893 6.39397 -0.0200893 4.98996 0.0602679C3.62388 0.140625 2.44754 0.462054 1.42299 1.5067C0.436384 2.55134 0.132812 3.83705 0.0569196 5.28348C-0.0189732 6.77009 -0.0189732 11.2299 0.0569196 12.7165C0.132812 14.1629 0.436384 15.4085 1.42299 16.4933C2.44754 17.5379 3.62388 17.8594 4.98996 17.9397C6.39397 18.0201 10.606 18.0201 12.01 17.9397C13.3761 17.8594 14.5904 17.5379 15.577 16.4933C16.5636 15.4085 16.8672 14.1629 16.9431 12.7165C17.019 11.2299 17.019 6.77009 16.9431 5.28348ZM15.1217 14.2835C14.856 15.0871 14.2489 15.6897 13.5279 16.0112C12.3895 16.4933 9.73326 16.3728 8.51897 16.3728C7.26674 16.3728 4.61049 16.4933 3.51004 16.0112C2.75112 15.6897 2.18192 15.0871 1.87835 14.2835C1.42299 13.1183 1.53683 10.3058 1.53683 8.97991C1.53683 7.6942 1.42299 4.8817 1.87835 3.67634C2.18192 2.91295 2.75112 2.31027 3.51004 1.98884C4.61049 1.5067 7.26674 1.62723 8.51897 1.62723C9.73326 1.62723 12.3895 1.5067 13.5279 1.98884C14.2489 2.27009 14.8181 2.91295 15.1217 3.67634C15.577 4.8817 15.4632 7.6942 15.4632 8.97991C15.4632 10.3058 15.577 13.1183 15.1217 14.2835Z" fill="#6C6D89"/>
</svg>
