<svg width="17" height="16" viewBox="0 0 17 16" fill="none" xmlns="http://www.w3.org/2000/svg">
<path d="M0.298096 7.67987L4.20648 9.25228L5.73007 14.5413C5.79632 14.8986 6.19378 14.9701 6.45876 14.7557L8.64478 12.8259C8.84352 12.6115 9.17474 12.6115 9.43971 12.8259L13.3481 15.8993C13.6131 16.1137 14.0105 15.9707 14.0768 15.6134L16.9915 0.604053C17.0577 0.246689 16.7265 -0.110673 16.3953 0.0322733L0.298096 6.75073C-0.0993653 6.89367 -0.0993653 7.53693 0.298096 7.67987ZM5.53135 8.46607L13.2156 3.3915C13.3481 3.32002 13.4806 3.53445 13.3481 3.60592L7.05494 9.96701C6.85621 10.1814 6.65748 10.4673 6.65748 10.8247L6.45876 12.54C6.45876 12.7545 6.12753 12.8259 6.06129 12.54L5.26636 9.39522C5.06763 9.03786 5.20013 8.60902 5.53135 8.46607Z" fill="#6C6D89"/>
</svg>
