<svg width="18" height="18" viewBox="0 0 18 18" fill="none" xmlns="http://www.w3.org/2000/svg">
<path d="M16.7927 4.5948C15.988 3.18126 14.8962 2.06221 13.5174 1.23731C12.1384 0.412367 10.6329 0 8.99993 0C7.36716 0 5.86115 0.41249 4.48241 1.23731C3.10345 2.06216 2.01185 3.18126 1.20704 4.5948C0.402363 6.00825 0 7.55179 0 9.22534C0 11.2356 0.572164 13.0433 1.71678 14.6489C2.86127 16.2546 4.33976 17.3657 6.15223 17.9823C6.3632 18.0225 6.51935 17.9942 6.62091 17.8983C6.72246 17.8023 6.77323 17.682 6.77323 17.5381C6.77323 17.514 6.77121 17.2979 6.76731 16.8894C6.76326 16.4809 6.76138 16.1246 6.76138 15.8205L6.49183 15.8682C6.32 15.9005 6.10318 15.9142 5.84142 15.9104C5.57982 15.9066 5.30824 15.8785 5.02707 15.8263C4.74574 15.7745 4.48406 15.6544 4.24189 15.4662C3.99978 15.278 3.82788 15.0316 3.72633 14.7275L3.60918 14.4511C3.53103 14.267 3.4081 14.0626 3.2401 13.8385C3.0721 13.6143 2.90219 13.4622 2.73034 13.3821L2.64829 13.3219C2.59362 13.2819 2.54289 13.2336 2.49598 13.1776C2.4491 13.1216 2.41401 13.0656 2.39057 13.0094C2.36709 12.9533 2.38655 12.9072 2.44915 12.871C2.51173 12.8349 2.62486 12.8174 2.789 12.8174L3.02328 12.8533C3.1795 12.8853 3.37278 12.9813 3.60333 13.1415C3.83381 13.3017 4.02318 13.5098 4.17168 13.766C4.35146 14.0944 4.56806 14.3447 4.82209 14.5169C5.07589 14.689 5.33179 14.775 5.58957 14.775C5.84735 14.775 6.06995 14.755 6.25753 14.7152C6.44488 14.6751 6.62068 14.6149 6.78486 14.5349C6.85513 13.9981 7.04653 13.5857 7.35899 13.2975C6.91371 13.2495 6.51343 13.1773 6.15785 13.0812C5.80242 12.9851 5.43522 12.829 5.05639 12.6125C4.67734 12.3964 4.36286 12.128 4.11296 11.8079C3.86298 11.4875 3.65786 11.0669 3.4978 10.5465C3.33775 10.0259 3.25765 9.42531 3.25765 8.7446C3.25765 7.77544 3.56628 6.95074 4.18346 6.26996C3.89441 5.54136 3.92163 4.72449 4.26544 3.8196C4.49201 3.74741 4.82802 3.80161 5.27329 3.98167C5.71857 4.16188 6.04468 4.31626 6.25175 4.44426C6.4589 4.57219 6.6248 4.68067 6.74983 4.76855C7.47659 4.56043 8.22652 4.45633 8.99985 4.45633C9.77318 4.45633 10.5233 4.56043 11.25 4.76855L11.6954 4.4804C11.9999 4.28812 12.3594 4.11191 12.7733 3.95176C13.1873 3.79162 13.5039 3.74757 13.7228 3.81968C14.0742 4.72465 14.1055 5.54143 13.8163 6.27011C14.4335 6.95089 14.7423 7.77583 14.7423 8.74476C14.7423 9.42546 14.6619 10.0279 14.502 10.5525C14.3419 11.0772 14.1351 11.4973 13.8812 11.8139C13.6271 12.1303 13.3107 12.3965 12.9318 12.6126C12.5529 12.8289 12.1856 12.985 11.8301 13.0812C11.4746 13.1773 11.0744 13.2497 10.6291 13.2977C11.0351 13.6579 11.2382 14.2265 11.2382 15.0033V17.5377C11.2382 17.6817 11.2871 17.8019 11.3849 17.898C11.4825 17.9939 11.6367 18.0221 11.8477 17.9819C13.6604 17.3654 15.1389 16.2543 16.2833 14.6485C17.4277 13.0429 18 11.2352 18 9.22496C17.9996 7.55164 17.597 6.00825 16.7927 4.5948Z" fill="#6C6D89"/>
</svg>
